<svg width="353" height="57" viewBox="0 0 353 57" fill="none" xmlns="http://www.w3.org/2000/svg">
<g clip-path="url(#clip0_113_531)">
<path d="M54.1045 2V28.2166C54.1045 34.7146 50.6089 40.77 44.9817 44.0193L28.0522 53.7949L11.123 44.0193C5.49585 40.77 2 34.7148 2 28.2166V2H54.1045ZM56.1045 0H0V28.2166C0 35.45 3.85889 42.1343 10.123 45.7512L28.0522 56.1045L45.9817 45.7512C52.2456 42.1343 56.1045 35.45 56.1045 28.2166V0Z" fill="#333333"/>
<path fill-rule="evenodd" clip-rule="evenodd" d="M15.3977 14.8511V23.627C16.5978 22.2718 18.7797 21.3547 21.2745 21.3547H23.9856V31.5566C23.9856 34.2707 23.2481 36.6464 22.1539 37.9532H33.9467C32.8548 36.6451 32.119 34.2724 32.119 31.5617V21.3547H34.8303C37.325 21.3547 39.5069 22.2718 40.707 23.627V14.8511H15.3977Z" fill="#333333"/>
<path d="M66.0043 14.8513H91.4483V20.956H82.2405V37.9526H75.2444V20.956H66.0043V14.8513Z" fill="#333333"/>
<path d="M101.577 29.0419V32.3425H118.046V37.9526H94.5808V14.8513H118.046V20.4615H101.577V23.7621H116.725V29.0419H101.577Z" fill="#333333"/>
<path d="M139.229 25.6093V26.0384L149.592 37.9526H140.946L134.972 31.0875H134.477L128.504 37.9526H120.188L130.385 26.2368V25.8077L120.847 14.8513H129.494L134.675 20.8241H135.105L140.285 14.8513H148.602L139.229 25.6093Z" fill="#333333"/>
<path d="M159.06 29.3722V37.9526H152.064V14.8513H159.06V23.2665H170.512V14.8513H177.508V37.9526H170.512V29.3722H159.06Z" fill="#333333"/>
<path d="M210.408 26.4019C210.408 33.3325 205.095 38.6123 195.524 38.6123C185.954 38.6123 180.641 33.3325 180.641 26.4019C180.641 19.4713 185.954 14.1906 195.524 14.1906C205.095 14.1906 210.408 19.4713 210.408 26.4019ZM203.148 26.4019C203.148 22.6068 200.178 20.1311 195.524 20.1311C190.871 20.1311 187.901 22.6068 187.901 26.4019C187.901 30.1971 190.871 32.6718 195.524 32.6718C200.178 32.6718 203.148 30.1971 203.148 26.4019Z" fill="#333333"/>
<path d="M230.239 20.956H221.725C221.725 24.8841 221.296 30.1307 220.834 33.2661C220.174 37.721 217.534 37.9526 214.3 37.9526H211.395V31.8469H214.399C214.893 28.6793 215.125 24.8841 215.125 20.956V14.8513H237.236V37.9526H230.239V20.956Z" fill="#333333"/>
<path d="M270.136 26.4019C270.136 33.3325 264.822 38.6123 255.252 38.6123C245.681 38.6123 240.368 33.3325 240.368 26.4019C240.368 19.4713 245.681 14.1906 255.252 14.1906C264.822 14.1906 270.136 19.4713 270.136 26.4019ZM262.875 26.4019C262.875 22.6068 259.905 20.1311 255.252 20.1311C250.599 20.1311 247.629 22.6068 247.629 26.4019C247.629 30.1971 250.599 32.6718 255.252 32.6718C259.905 32.6718 262.875 30.1971 262.875 26.4019Z" fill="#333333"/>
<path d="M273.269 37.9526V14.8513H294.06V20.956H280.265V37.9526H273.269Z" fill="#333333"/>
<path d="M304.188 14.8513V28.2502H304.519L316.63 14.8513H322.636V37.9526H315.64V24.587H315.31L303.198 37.9526H297.192V14.8513H304.188Z" fill="#333333"/>
<path d="M334.085 14.8513V28.2502H334.416L346.527 14.8513H352.533V37.9526H345.537V24.587H345.207L333.095 37.9526H327.089V14.8513H334.085Z" fill="#333333"/>
</g>
<defs>
<clipPath id="clip0_113_531">
<rect width="352.533" height="56.1045" fill="white"/>
</clipPath>
</defs>
</svg>
